<svg xmlns="http://www.w3.org/2000/svg" viewBox="0 0 24 24">
  <path fill="currentColor" d="M22.6 12c-.2-.8-.7-1.4-1.7-2.6l-.1-.1c-.2-.3-.5-.6-.8-.8-.1 0-.2-.1-.3-.1-.3-3.5-3.8-6.2-7.7-6.2-3.9 0-7.4 2.6-7.7 6.1-.5.3-.9.7-1.2 1.1-1 1.2-1.5 1.8-1.7 2.6-.2.6-.2 1.3 0 1.9.2.9.9 1.6 1.4 2.3.1.1.2.3.3.4.4.4.9 1.1 1.8 1.1h.2c.4 0 .7-.2 1.1-.4.4-.2.6-.3.8-.5.6-.5.6-1.2.6-1.7v-4.4c0-.3 0-.6-.1-1 0-.2-.2-.4-.4-.6-.2-.2-.4-.3-.8-.5-.2 0-.4-.1-.5-.2.3-2.5 2.9-4.6 6.2-4.6 3.3 0 5.9 2.1 6.2 4.7-.2.1-.3.1-.5.2-.5.2-1.1.5-1.3 1.2-.1.3-.1.5-.1.9v4.4c0 .4 0 .6.1.9.3.7.9 1 1.3 1.2.2.1.4.2.6.2v.2c0 1.2-1.3 2.5-3.2 2.5h-2c-.4 0-.8.3-.8.8s.3.8.8.8h2c2.5 0 4.8-1.6 4.8-4v-.2c.1 0 .2-.1.2-.1.3-.2.5-.4.9-.8.1-.1.2-.3.3-.4.6-.6 1.2-1.4 1.4-2.3.1-.7.1-1.3-.1-2zM6.2 10.3v4.9c0 .4 0 .5-.1.6 0 0-.2.1-.5.2s-.6.3-.6.3c-.2 0-.3-.1-.7-.5-.1-.1-.2-.3-.4-.4-.5-.6-1-1.1-1.1-1.7-.1-.4-.1-.8 0-1.2.1-.5.6-1 1.5-2.1.4-.5.5-.6.7-.6.1 0 .3.1.6.3.3 0 .5.1.6.2zm15 3.3c-.2.6-.7 1.2-1.1 1.7-.1.1-.2.3-.4.4-.2.2-.4.4-.4.5-.1 0-.2.1-.3.1-.1 0-.3-.1-.7-.3-.3-.2-.5-.2-.5-.3V10.5c0-.1.2-.2.6-.4.3-.1.6-.3.6-.3.1 0 .2 0 .2.1.1.1.2.2.3.4l.1.2c.9 1.1 1.3 1.6 1.4 2.1.3.2.3.6.2 1z" clip-rule="evenodd"/>
</svg>
