<svg xmlns="http://www.w3.org/2000/svg" xml:space="preserve" id="Layer_1" x="0" y="0" version="1.1" viewBox="0 0 24 24">
  <path d="M19 8.1h-1.2V6.9a2.732 2.732 0 0 0-2.7-2.7H5c-.7-.1-1.4.2-1.9.8-.6.5-.9 1.2-.9 1.9v6a2.732 2.732 0 0 0 2.7 2.7h1.2v1.2c0 1.5 1.2 2.8 2.8 2.8h10c1.5 0 2.8-1.2 2.8-2.8v-6c.1-1.4-1.2-2.7-2.7-2.7zm-14 6c-.3 0-.6-.1-.9-.4-.2-.2-.4-.6-.4-.9v-6c0-.3.1-.6.4-.9.3-.1.6-.3.9-.3h10c.3 0 .6.1.9.4.2.2.4.6.4.9v1.2H9c-1.5 0-2.8 1.2-2.8 2.8v3.2H5zm15.2 2.8c0 .7-.6 1.2-1.2 1.2H9c-.7 0-1.2-.6-1.2-1.2v-6c0-.7.6-1.2 1.2-1.2h10c.7 0 1.2.6 1.2 1.2v6z" class="st0"/>
  <path d="M14 11.1c-1.5 0-2.8 1.2-2.8 2.8s1.2 2.8 2.8 2.8 2.8-1.2 2.8-2.8-1.3-2.8-2.8-2.8zm0 4c-.7 0-1.2-.6-1.2-1.2 0-.7.6-1.2 1.2-1.2s1.2.6 1.2 1.2c0 .7-.5 1.2-1.2 1.2z" class="st0"/>
</svg>
