<svg xmlns="http://www.w3.org/2000/svg" xml:space="preserve" viewBox="0 0 24 24">
  <path d="M18.5 2.5c-1.2-1.2-3-1.2-6.5-1.2s-5.3 0-6.5 1.2C4.2 3.7 4.2 5.5 4.2 9v6c0 3.5 0 5.3 1.2 6.5 1.2 1.2 3 1.2 6.5 1.2s5.3 0 6.5-1.2 1.2-3 1.2-6.5V9c.2-3.5.2-5.3-1.1-6.5zm-4.4.3c-.1.7-.2 1.1-.4 1.3-.2.1-.7.1-1.7.1s-1.5 0-1.7-.2c-.2-.1-.3-.5-.4-1.2h4.2zM18.2 15c0 3.1 0 4.6-.8 5.4s-2.4.8-5.4.8-4.6 0-5.4-.8c-.8-.8-.8-2.4-.8-5.4V9c0-3.1 0-4.6.8-5.4.4-.4.9-.6 1.8-.7.2 1.1.3 1.8.9 2.3.6.6 1.4.6 2.7.6 1.3 0 2.1 0 2.7-.6.6-.5.7-1.2.9-2.3.9.1 1.4.3 1.8.7.8.8.8 2.4.8 5.4v6z"/>
  <path d="M13 18.2h-2c-.4 0-.8.3-.8.8s.3.8.8.8h2c.4 0 .8-.3.8-.8s-.4-.8-.8-.8z"/>
</svg>
