<svg xmlns="http://www.w3.org/2000/svg" xml:space="preserve" viewBox="0 0 24 24">
  <path d="M19.2 5.5c-.2-.3-.4-.5-.7-.7-1.3-1.1-3.1-1.1-6.5-1.1s-5.2 0-6.5 1.1c-.3.2-.5.4-.7.7-1 1.3-1 3-1 6.5s0 5.2 1.1 6.5c.1.3.3.5.6.7 1.3 1.1 3.1 1.1 6.5 1.1s5.2 0 6.5-1.1c.2-.2.5-.4.7-.7 1.1-1.3 1.1-3.1 1.1-6.5s-.1-5.2-1.1-6.5zM18 17.6c-.1.2-.3.3-.4.4-.9.7-2.5.7-5.6.7s-4.7 0-5.6-.7c-.2-.1-.3-.3-.4-.4-.7-.9-.7-2.5-.7-5.6s0-4.7.7-5.6l.4-.4c.9-.8 2.5-.8 5.6-.8s4.7 0 5.6.7c.2.1.3.3.4.5.7.9.7 2.5.7 5.6s.1 4.7-.7 5.6zM15 21.2H9c-.4 0-.8.3-.8.8s.3.8.8.8h6c.4 0 .8-.3.8-.8s-.4-.8-.8-.8zM9 2.8h6c.4 0 .8-.3.8-.8s-.4-.8-.8-.8H9c-.4 0-.8.4-.8.8s.4.8.8.8z"/>
  <path d="M14.5 8.5 12 10.9l-1.5-1.5c-.3-.3-.8-.3-1.1 0s-.3.8 0 1.1l1.5 1.5-.5.5c-.3.3-.3.8 0 1.1s.8.3 1.1 0l.5-.5.5.5c.1.1.3.2.5.2s.4-.1.5-.2c.3-.3.3-.8 0-1.1l-.4-.5 2.5-2.5c.3-.3.3-.8 0-1.1s-.8-.2-1.1.1z"/>
</svg>
