<svg xmlns="http://www.w3.org/2000/svg" xml:space="preserve" viewBox="0 0 24 24">
  <path fill-rule="evenodd" d="M22.6 9.5c-.2-1.2-.5-2.1-1.2-2.9-.7-.7-1.7-1.1-2.9-1.2-1.1-.2-2.6-.2-4.4-.2h-.2l2.7-2.7c.3-.3.3-.8 0-1.1-.3-.3-.8-.3-1.1 0L12 4.9 9.5 2.5c-.3-.3-.8-.3-1.1 0s-.3.8 0 1.1l1.7 1.7h-.2c-1.8 0-3.3 0-4.4.2-1.2.1-2.1.4-2.9 1.1s-1 1.7-1.2 2.9c-.2 1.1-.2 2.6-.2 4.4v.1c0 1.8 0 3.3.2 4.4.2 1.2.5 2.1 1.2 2.9.7.7 1.7 1.1 2.9 1.2 1.1.2 2.6.2 4.4.2H14c1.8 0 3.3 0 4.4-.2 1.2-.2 2.1-.5 2.9-1.2.7-.7 1.1-1.7 1.2-2.9.2-1.1.2-2.6.2-4.4v-.1c.1-1.8.1-3.2-.1-4.4zm-1.5 8.8c-.1 1-.4 1.6-.8 2-.4.4-1 .7-2 .8-1 .1-2.4.1-4.3.1h-4c-1.9 0-3.3 0-4.3-.1s-1.6-.4-2-.8-.7-1-.8-2c-.1-1-.1-2.4-.1-4.3s0-3.3.1-4.3.4-1.6.8-2 1-.7 2-.8c1-.1 2.4-.1 4.3-.1h4c1.9 0 3.3 0 4.3.1s1.6.4 2 .8c.4.4.7 1 .8 2 .1 1 .1 2.4.1 4.3s0 3.3-.1 4.3z" clip-rule="evenodd"/>
</svg>
