<svg xmlns="http://www.w3.org/2000/svg" xml:space="preserve" id="Layer_1" x="0" y="0" version="1.1" viewBox="0 0 24 24">
  <path d="M21.3 8c-.4-1-1.2-1.7-2.2-2-4.4-1-9.8-1-14.2.1-1 .2-1.8 1-2.2 2-.6 1.6-1.3 4.2-1.5 7.7-.2 2.6 1.8 4 3.5 4.8.5.2.9.2 1.4.1.4-.2.7-.4 1-.7.5-.6.9-1.4 1.1-2 .2-.4.6-.6 1-.6h5.7c.4 0 .8.2 1 .6.3.6.6 1.4 1.1 2 .2.3.6.6 1 .7.4.2.9.2 1.4-.1 1.7-.9 3.6-2.2 3.5-4.8-.4-3.6-1.1-6.2-1.6-7.8zm-2.7 11.2h-.1c-.1 0-.2-.1-.4-.3-.3-.4-.6-1-.9-1.6-.4-.9-1.3-1.5-2.4-1.5H9.2c-1 0-2 .6-2.4 1.5-.3.6-.6 1.2-.9 1.6-.2.2-.3.3-.4.3h-.1c-1.6-.8-2.7-1.8-2.6-3.4.2-3.4.8-5.9 1.3-7.3.2-.5.6-.9 1.1-1 4.2-1 9.3-1 13.4 0l.2-.7-.2.7c.5.1.9.5 1.1 1 .5 1.4 1.2 3.9 1.4 7.3.2 1.6-.9 2.6-2.5 3.4zM16.8 4.7l2 .5c.4.1.8-.1.9-.5.1-.4-.1-.8-.5-.9l-2-.5c-.4-.1-.8.1-.9.5-.1.4.1.8.5.9zM5.2 5.2l2-.5c.4-.1.6-.5.5-.9-.1-.4-.5-.6-.9-.5l-2 .5c-.4.1-.6.5-.5.9.1.4.5.6.9.5z" class="st0"/>
  <path d="M9.5 9.5c-.3-.3-.8-.3-1.1 0l-1 1-1-1c-.3-.3-.8-.3-1.1 0s-.3.8 0 1.1l1 1-1 1c-.3.3-.3.8 0 1.1.3.3.8.3 1.1 0l1-1 1 1c.3.3.8.3 1.1 0 .3-.3.3-.8 0-1.1l-1-1 1-1c.3-.4.3-.8 0-1.1zM16 9c-.6 0-1 .4-1 1s.4 1 1 1 1-.4 1-1-.5-1-1-1zM18 12c-.6 0-1 .4-1 1s.4 1 1 1 1-.4 1-1-.5-1-1-1z" class="st0"/>
</svg>
