<svg xmlns="http://www.w3.org/2000/svg" xml:space="preserve" viewBox="0 0 24 24">
  <path d="m22.6 13.5-.2-2.5c-.1-1.7-.2-2.5-.5-3.3-.4-.9-1.2-1.7-2.2-2.1-.7-.3-1.5-.3-2.6-.3l-.4-1c-.4-.9-.8-2.1-1.9-2.6-.7-.3-1.4-.3-2.8-.3-1.3 0-2.1 0-2.7.3-1.2.5-1.6 1.6-2 2.5l-.4 1c-1.2 0-1.9 0-2.6.3-1 .5-1.8 1.2-2.2 2.1-.4.8-.4 1.6-.5 3.3l-.2 2.5c-.3 4.2-.4 6.3 1 7.8s3.5 1.5 7.6 1.5h4c4.2 0 6.2 0 7.6-1.5 1.4-1.4 1.2-3.6 1-7.7zm-2.1 6.7c-.9 1-2.8 1-6.5 1h-4c-3.7 0-5.6 0-6.5-1-1-1-.8-2.9-.6-6.7l.2-2.5c.1-1.5.1-2.3.4-2.7.2-.6.7-1.1 1.3-1.3.3-.1.7-.2 1.5-.2-.1.3 0 .7.4.9.4.2.8 0 1-.4l1-2.5c.3-.8.6-1.6 1.2-1.9.4-.2.9-.2 2.1-.2 1.1 0 1.7 0 2.1.2.6.3.9 1 1.2 1.8l1 2.5c.1.3.4.5.7.5.1 0 .2 0 .3-.1.4-.1.6-.6.4-.9.7 0 1.1.1 1.5.2.6.3 1.1.7 1.4 1.3.2.5.3 1.2.4 2.7l.2 2.5c.1 3.9.2 5.8-.7 6.8z"/>
  <path d="M12 9.8c-2.3 0-4.2 1.9-4.2 4.2 0 2.3 1.9 4.2 4.2 4.2 2.3 0 4.2-1.9 4.2-4.2 0-2.3-1.9-4.2-4.2-4.2zm0 7c-1.5 0-2.8-1.2-2.8-2.8s1.2-2.8 2.8-2.8 2.8 1.2 2.8 2.8-1.3 2.8-2.8 2.8zM12 7c.6 0 1-.4 1-1s-.4-1-1-1-1 .4-1 1 .5 1 1 1z"/>
</svg>
