<svg xmlns="http://www.w3.org/2000/svg" width="24" height="24" fill="none">
  <path fill="#000" fill-rule="evenodd" d="M9.87 4.65a3.25 3.25 0 0 1 5.549 2.298v3.25h-6.5v-3.25c0-.862.342-1.689.951-2.298Zm-2.452 5.548v-3.25a4.75 4.75 0 1 1 9.5 0v3.25h.25a2.75 2.75 0 0 1 2.75 2.75v6a2.75 2.75 0 0 1-2.75 2.75h-10a2.75 2.75 0 0 1-2.75-2.75v-6a2.75 2.75 0 0 1 2.75-2.75h.25Zm8.75 1.5h1c.69 0 1.25.56 1.25 1.25v6c0 .69-.56 1.25-1.25 1.25h-10c-.69 0-1.25-.56-1.25-1.25v-6c0-.69.56-1.25 1.25-1.25h9Zm-4 4a.25.25 0 1 0 0 .5.25.25 0 0 0 0-.5Zm-1.75.25a1.75 1.75 0 1 1 3.5 0 1.75 1.75 0 0 1-3.5 0Z" clip-rule="evenodd"/>
</svg>
