<svg xmlns="http://www.w3.org/2000/svg" width="24" height="24" fill="none">
  <path fill="#000" fill-rule="evenodd" d="M5.064 4.646a1.25 1.25 0 0 0-1.25 1.23 15.25 15.25 0 0 0 14.27 14.27 1.25 1.25 0 0 0 1.23-1.25v-3.492L15.38 13.83l-1.171 1.952a.75.75 0 0 1-.975.287 11.75 11.75 0 0 1-5.341-5.341.75.75 0 0 1 .287-.975l1.952-1.171-1.574-3.936H5.064ZM3.12 3.951a2.75 2.75 0 0 1 1.944-.805h4a.75.75 0 0 1 .697.471l2 5a.75.75 0 0 1-.31.922l-1.888 1.133a10.25 10.25 0 0 0 3.726 3.726l1.132-1.888a.75.75 0 0 1 .922-.31l5 2a.75.75 0 0 1 .471.696v4a2.75 2.75 0 0 1-2.795 2.749A16.75 16.75 0 0 1 2.314 5.896c0-.73.29-1.429.806-1.945Z" clip-rule="evenodd"/>
</svg>
