<svg xmlns="http://www.w3.org/2000/svg" xml:space="preserve" id="Layer_1" x="0" y="0" version="1.1" viewBox="0 0 24 24">
  <path d="M20.3 15.8c-1.1-.5-1.8-1.5-1.8-2.7 0-1.1.6-2.1 1.6-2.6.2-.1.3-.3.4-.5s0-.4-.1-.6c-.9-1.5-2.5-2.7-4.3-2.7-.7 0-1.3.1-1.7.2-.4.1-.8.3-1 .4-.4.2-.6.3-1 .3s-.6-.1-1-.3c-.2-.1-.6-.3-1-.4-.4-.1-1-.2-1.7-.2-1.6 0-2.9.8-3.9 2-.9 1.2-1.5 2.7-1.5 4.3 0 1.6.7 3.9 1.7 5.9.5 1 1.1 1.9 1.8 2.6.7.7 1.5 1.2 2.4 1.2 1 0 1.6-.3 2-.6.4-.2.7-.4 1.2-.4s.8.1 1.2.4c.5.2 1.1.6 2 .6.6 0 1.2-.3 1.7-.6.5-.4 1-.9 1.4-1.4.8-1.1 1.5-2.6 2-4 .1-.3 0-.7-.4-.9zm-2.8 4c-.4.5-.7.9-1.1 1.1-.3.2-.6.3-.9.3-.6 0-.9-.2-1.4-.4-.4-.2-1-.5-1.9-.5-.9 0-1.4.3-1.9.5-.4.2-.8.4-1.4.4-.3 0-.8-.2-1.3-.8-.5-.5-1-1.3-1.5-2.2-.9-1.8-1.5-3.9-1.5-5.2 0-1.2.5-2.5 1.2-3.4.7-.9 1.7-1.5 2.7-1.5.6 0 1 .1 1.3.2.3.1.5.2.7.3.4.2.9.5 1.7.5.8 0 1.3-.2 1.7-.5.2-.1.5-.2.7-.3.3-.1.7-.2 1.3-.2 1 0 1.9.5 2.6 1.4-1 .8-1.7 2.1-1.7 3.5 0 1.6.8 2.9 2.1 3.7-.3 1.2-.8 2.3-1.4 3.1z" class="st0"/>
  <path d="M12.5 6.8c2.1 0 3.8-1.8 3.8-4V2c0-.4-.3-.8-.8-.8-2.1 0-3.8 1.8-3.8 4V6c.1.4.4.8.8.8zm2.2-3.9c0 1.1-.7 1.9-1.5 2.2.1-1 .7-1.9 1.5-2.2z" class="st0"/>
</svg>
