<svg xmlns="http://www.w3.org/2000/svg" viewBox="0 0 24 24">
  <path fill="#fff" d="M14.5 16.4c-.6.5-1.5.8-2.5.8s-1.9-.3-2.5-.8c-.3-.3-.8-.2-1.1.1-.3.3-.2.8.1 1.1.9.8 2.1 1.2 3.5 1.2s2.6-.4 3.5-1.2c.3-.3.3-.7.1-1.1-.3-.3-.8-.3-1.1-.1z"/>
  <path fill="#fff" d="M22.8 8.6c0-.9-.6-2.7-1.7-5.4-.3-.6-1-1.3-2-1.4H5.5c-1 0-1.6.2-2.1.6-.5.4-.8 1.4-1.1 2.3l-.7 2c-.2.4-.5 1.8-.2 2.6.2.4.5.8.8 1.2v5c0 2.9 0 4.6 1.1 5.7 1.1 1 2.7 1 5.7 1h6c2.9 0 4.6 0 5.7-1.1s1.1-2.7 1.1-5.7v-4.9c.7-.7.9-1.5 1-1.9-.1.1 0 0 0 0zM3 7.2l.7-2c.4-1.2.6-1.6.8-1.7 0 0 .2-.2 1-.2h13.6c.4 0 .7.5.7.5C21 7 21.2 8.1 21.2 8.5c-.1.5-.6 1.6-2.4 2.1-1.4.4-2.3 0-2.9-.4.2-.3.4-.7.6-1.5.1-.4-.1-.8-.5-.9-.4-.1-.8.1-.9.5-.3.9-.5 1.2-.5 1.2-.3.4-1.4 1.3-2.6 1.3-.8 0-1.5-.3-1.9-.6.3-.5.6-1.1.7-1.5.1-.4-.1-.8-.5-.9-.4-.2-.8 0-.9.4-.2.8-1 2.3-2.6 2.5-1.5.2-2.6-.5-2.7-.6 0 0-.1 0-.1-.1-.4-.2-1-1-1.1-1.2-.2-.3-.1-1.1.1-1.6zm16.6 12.9c-.7.7-2 .7-4.6.7H9c-2.6 0-3.9 0-4.6-.7-.7-.7-.7-2-.7-4.6v-3.9c.6.3 1.4.6 2.5.6h.7c.9-.1 1.6-.5 2.2-1 .6.5 1.6 1 2.8 1 1.1 0 2.2-.5 2.9-1 .8.7 2.2 1.4 4.3.8.4-.1.7-.2 1-.4v3.9c.1 2.6.1 3.9-.5 4.6z"/>
</svg>
