<svg xmlns="http://www.w3.org/2000/svg" xml:space="preserve" viewBox="0 0 24 24">
  <path d="M21.9 2.1c-.8-.9-1.9-.9-3.9-.9s-3.1 0-3.9.8-.9 2-.9 4v2c0 2 0 3.1.8 3.9.8.8 1.9.8 3.9.8s3.1 0 3.9-.8 1-1.9 1-3.9V6c0-2 0-3.1-.9-3.9zM21.2 8c0 1.7 0 2.5-.4 2.9-.4.4-1.1.4-2.9.4s-2.5 0-2.9-.4c-.4-.4-.4-1.1-.4-2.9V6c0-1.7 0-2.5.4-2.9.4-.4 1.1-.4 2.9-.4s2.5 0 2.9.4c.4.4.4 1.1.4 2.9v2z"/>
  <path d="M18 8c-.6 0-1 .4-1 1s.5 1 1 1 1-.4 1-1-.4-1-1-1z"/>
  <path d="M20.8 14.9v-.4c0-.4-.3-.8-.8-.8-.3 0-.6.2-.7.5H4.8V7c0-1.7 0-2.5.4-2.9.3-.3 1.1-.3 2.8-.3h3c.4 0 .8-.3.8-.8s-.4-.8-.8-.8H8c-2 0-3.1 0-3.9.8-.9.9-.9 2-.9 4v7.9l-.4.8c-1.4 2.5-2 4.3-1.2 5.7.8 1.4 2.5 1.4 5.6 1.4h9.7c3.1 0 4.8 0 5.6-1.4.8-1.4.1-3.2-1.3-5.7l-.4-.8zm.3 5.7c-.3.6-1.8.6-4.3.6H7.2c-2.4 0-3.9 0-4.3-.6-.4-.7 0-1.9 1.3-4.3l.3-.6h15l.3.6c1.3 2.4 1.7 3.6 1.3 4.3z"/>
</svg>
